<?xml version="1.0" standalone="no"?>
<!DOCTYPE svg PUBLIC "-//W3C//DTD SVG 20010904//EN"
 "http://www.w3.org/TR/2001/REC-SVG-20010904/DTD/svg10.dtd">
<svg version="1.0" xmlns="http://www.w3.org/2000/svg"
 width="260.000000pt" height="260.000000pt" viewBox="0 0 260.000000 260.000000"
 preserveAspectRatio="xMidYMid meet">
<metadata>
Created by potrace 1.11, written by Peter Selinger 2001-2013
</metadata>
<g transform="translate(0.000000,260.000000) scale(0.100000,-0.100000)"
fill="#000000" stroke="none">
<path d="M1265 1325 c-913 -923 -1261 -1281 -1263 -1300 l-3 -25 1300 0 1301
0 0 1300 0 1300 -38 0 c-37 0 -66 -29 -1297 -1275z m795 -161 c103 -31 160
-113 160 -229 0 -75 -17 -122 -62 -171 -55 -60 -124 -84 -260 -91 l-107 -6 -3
-151 -3 -151 -53 -3 c-31 -2 -60 2 -68 9 -19 16 -21 788 -1 808 18 19 322 8
397 -15z"/>
<path d="M1790 930 l0 -143 98 5 c140 7 185 35 196 123 8 56 -12 105 -53 129
-26 15 -58 21 -137 24 l-104 5 0 -143z"/>
<path d="M405 2237 c-3 -6 -4 -188 -3 -402 l3 -390 63 -3 62 -3 0 125 0 125
61 72 62 71 54 -99 c31 -54 80 -142 110 -195 l54 -98 64 0 c35 0 66 4 69 8 3
5 -51 107 -121 228 -69 120 -130 229 -135 240 -9 19 5 40 109 166 66 79 118
149 115 156 -2 8 -25 12 -66 12 l-62 0 -150 -179 c-82 -99 -152 -180 -156
-180 -5 -1 -8 80 -8 179 l0 180 -60 0 c-39 0 -62 -4 -65 -13z"/>
</g>
</svg>
